<mxfile host="Electron" modified="2023-10-21T17:53:01.646Z" agent="Mozilla/5.0 (Windows NT 10.0; Win64; x64) AppleWebKit/537.36 (KHTML, like Gecko) draw.io/22.0.3 Chrome/114.0.5735.289 Electron/25.8.4 Safari/537.36" etag="zg6iVKD74raucbCrqLGC" version="22.0.3" type="device">
  <diagram id="C5RBs43oDa-KdzZeNtuy" name="Page-1">
    <mxGraphModel dx="1769" dy="2005" grid="1" gridSize="10" guides="1" tooltips="1" connect="1" arrows="1" fold="1" page="1" pageScale="1" pageWidth="827" pageHeight="1169" math="0" shadow="0">
      <root>
        <mxCell id="WIyWlLk6GJQsqaUBKTNV-0" />
        <mxCell id="WIyWlLk6GJQsqaUBKTNV-1" parent="WIyWlLk6GJQsqaUBKTNV-0" />
        <mxCell id="etLwFJgJZtQVE6GD_fiM-0" value="Gestor Agrícola" style="rounded=0;whiteSpace=wrap;html=1;" vertex="1" parent="WIyWlLk6GJQsqaUBKTNV-1">
          <mxGeometry x="100" y="308" width="120" height="60" as="geometry" />
        </mxCell>
        <mxCell id="etLwFJgJZtQVE6GD_fiM-2" value="Edíficio" style="rounded=0;whiteSpace=wrap;html=1;" vertex="1" parent="WIyWlLk6GJQsqaUBKTNV-1">
          <mxGeometry x="630" y="20" width="120" height="60" as="geometry" />
        </mxCell>
        <mxCell id="etLwFJgJZtQVE6GD_fiM-3" value="Parcela" style="rounded=0;whiteSpace=wrap;html=1;" vertex="1" parent="WIyWlLk6GJQsqaUBKTNV-1">
          <mxGeometry x="630" y="308" width="120" height="60" as="geometry" />
        </mxCell>
        <mxCell id="etLwFJgJZtQVE6GD_fiM-6" value="" style="endArrow=none;html=1;rounded=0;entryX=0;entryY=0.5;entryDx=0;entryDy=0;exitX=1;exitY=0.5;exitDx=0;exitDy=0;" edge="1" parent="WIyWlLk6GJQsqaUBKTNV-1" source="etLwFJgJZtQVE6GD_fiM-0" target="etLwFJgJZtQVE6GD_fiM-11">
          <mxGeometry width="50" height="50" relative="1" as="geometry">
            <mxPoint x="280" y="390" as="sourcePoint" />
            <mxPoint x="480" y="300" as="targetPoint" />
          </mxGeometry>
        </mxCell>
        <mxCell id="etLwFJgJZtQVE6GD_fiM-11" value="Gere" style="rhombus;whiteSpace=wrap;html=1;" vertex="1" parent="WIyWlLk6GJQsqaUBKTNV-1">
          <mxGeometry x="430" y="298" width="80" height="80" as="geometry" />
        </mxCell>
        <mxCell id="etLwFJgJZtQVE6GD_fiM-12" value="" style="endArrow=none;html=1;rounded=0;exitX=1;exitY=0.5;exitDx=0;exitDy=0;entryX=0;entryY=0.5;entryDx=0;entryDy=0;" edge="1" parent="WIyWlLk6GJQsqaUBKTNV-1" source="etLwFJgJZtQVE6GD_fiM-11" target="etLwFJgJZtQVE6GD_fiM-3">
          <mxGeometry width="50" height="50" relative="1" as="geometry">
            <mxPoint x="430" y="350" as="sourcePoint" />
            <mxPoint x="430" y="460" as="targetPoint" />
          </mxGeometry>
        </mxCell>
        <mxCell id="etLwFJgJZtQVE6GD_fiM-16" value="Quinta" style="whiteSpace=wrap;html=1;" vertex="1" parent="WIyWlLk6GJQsqaUBKTNV-1">
          <mxGeometry x="280" y="150" width="120" height="60" as="geometry" />
        </mxCell>
        <mxCell id="etLwFJgJZtQVE6GD_fiM-17" value="Tem" style="rhombus;whiteSpace=wrap;html=1;" vertex="1" parent="WIyWlLk6GJQsqaUBKTNV-1">
          <mxGeometry x="500" y="140" width="80" height="80" as="geometry" />
        </mxCell>
        <mxCell id="etLwFJgJZtQVE6GD_fiM-20" value="" style="endArrow=none;html=1;rounded=0;exitX=1;exitY=0.5;exitDx=0;exitDy=0;entryX=0;entryY=0.5;entryDx=0;entryDy=0;" edge="1" parent="WIyWlLk6GJQsqaUBKTNV-1" source="etLwFJgJZtQVE6GD_fiM-16" target="etLwFJgJZtQVE6GD_fiM-17">
          <mxGeometry width="50" height="50" relative="1" as="geometry">
            <mxPoint x="390" y="290" as="sourcePoint" />
            <mxPoint x="440" y="240" as="targetPoint" />
          </mxGeometry>
        </mxCell>
        <mxCell id="etLwFJgJZtQVE6GD_fiM-21" value="" style="endArrow=none;html=1;rounded=0;entryX=0.5;entryY=1;entryDx=0;entryDy=0;exitX=1;exitY=0.5;exitDx=0;exitDy=0;" edge="1" parent="WIyWlLk6GJQsqaUBKTNV-1" source="etLwFJgJZtQVE6GD_fiM-17" target="etLwFJgJZtQVE6GD_fiM-2">
          <mxGeometry width="50" height="50" relative="1" as="geometry">
            <mxPoint x="500" y="170" as="sourcePoint" />
            <mxPoint x="440" y="240" as="targetPoint" />
          </mxGeometry>
        </mxCell>
        <mxCell id="etLwFJgJZtQVE6GD_fiM-22" value="" style="endArrow=none;html=1;rounded=0;exitX=0.5;exitY=0;exitDx=0;exitDy=0;entryX=1;entryY=0.5;entryDx=0;entryDy=0;" edge="1" parent="WIyWlLk6GJQsqaUBKTNV-1" source="etLwFJgJZtQVE6GD_fiM-3" target="etLwFJgJZtQVE6GD_fiM-17">
          <mxGeometry width="50" height="50" relative="1" as="geometry">
            <mxPoint x="650" y="248" as="sourcePoint" />
            <mxPoint x="440" y="240" as="targetPoint" />
          </mxGeometry>
        </mxCell>
        <mxCell id="etLwFJgJZtQVE6GD_fiM-23" value="1" style="text;html=1;align=center;verticalAlign=middle;resizable=0;points=[];autosize=1;strokeColor=none;fillColor=none;" vertex="1" parent="WIyWlLk6GJQsqaUBKTNV-1">
          <mxGeometry x="400" y="180" width="30" height="30" as="geometry" />
        </mxCell>
        <mxCell id="etLwFJgJZtQVE6GD_fiM-24" value="1" style="text;html=1;align=center;verticalAlign=middle;resizable=0;points=[];autosize=1;strokeColor=none;fillColor=none;" vertex="1" parent="WIyWlLk6GJQsqaUBKTNV-1">
          <mxGeometry x="220" y="338" width="30" height="30" as="geometry" />
        </mxCell>
        <mxCell id="etLwFJgJZtQVE6GD_fiM-25" value="N" style="text;html=1;align=center;verticalAlign=middle;resizable=0;points=[];autosize=1;strokeColor=none;fillColor=none;" vertex="1" parent="WIyWlLk6GJQsqaUBKTNV-1">
          <mxGeometry x="600" y="338" width="30" height="30" as="geometry" />
        </mxCell>
        <mxCell id="etLwFJgJZtQVE6GD_fiM-26" value="N" style="text;html=1;align=center;verticalAlign=middle;resizable=0;points=[];autosize=1;strokeColor=none;fillColor=none;" vertex="1" parent="WIyWlLk6GJQsqaUBKTNV-1">
          <mxGeometry x="675" y="80" width="30" height="30" as="geometry" />
        </mxCell>
        <mxCell id="etLwFJgJZtQVE6GD_fiM-27" value="N" style="text;html=1;align=center;verticalAlign=middle;resizable=0;points=[];autosize=1;strokeColor=none;fillColor=none;" vertex="1" parent="WIyWlLk6GJQsqaUBKTNV-1">
          <mxGeometry x="675" y="278" width="30" height="30" as="geometry" />
        </mxCell>
        <mxCell id="etLwFJgJZtQVE6GD_fiM-29" value="Tipo Edifício" style="ellipse;whiteSpace=wrap;html=1;" vertex="1" parent="WIyWlLk6GJQsqaUBKTNV-1">
          <mxGeometry x="560" y="-40" width="80" height="30" as="geometry" />
        </mxCell>
        <mxCell id="etLwFJgJZtQVE6GD_fiM-30" value="Área" style="ellipse;whiteSpace=wrap;html=1;" vertex="1" parent="WIyWlLk6GJQsqaUBKTNV-1">
          <mxGeometry x="600" y="-80" width="80" height="30" as="geometry" />
        </mxCell>
        <mxCell id="etLwFJgJZtQVE6GD_fiM-31" value="Unidade" style="ellipse;whiteSpace=wrap;html=1;" vertex="1" parent="WIyWlLk6GJQsqaUBKTNV-1">
          <mxGeometry x="740" y="-40" width="80" height="30" as="geometry" />
        </mxCell>
        <mxCell id="etLwFJgJZtQVE6GD_fiM-32" value="" style="endArrow=none;html=1;rounded=0;exitX=0.5;exitY=0;exitDx=0;exitDy=0;" edge="1" parent="WIyWlLk6GJQsqaUBKTNV-1" source="etLwFJgJZtQVE6GD_fiM-2" target="etLwFJgJZtQVE6GD_fiM-29">
          <mxGeometry width="50" height="50" relative="1" as="geometry">
            <mxPoint x="420" y="60" as="sourcePoint" />
            <mxPoint x="470" y="10" as="targetPoint" />
          </mxGeometry>
        </mxCell>
        <mxCell id="etLwFJgJZtQVE6GD_fiM-33" value="" style="endArrow=none;html=1;rounded=0;entryX=0.5;entryY=1;entryDx=0;entryDy=0;exitX=0.5;exitY=0;exitDx=0;exitDy=0;" edge="1" parent="WIyWlLk6GJQsqaUBKTNV-1" source="etLwFJgJZtQVE6GD_fiM-2" target="etLwFJgJZtQVE6GD_fiM-30">
          <mxGeometry width="50" height="50" relative="1" as="geometry">
            <mxPoint x="420" y="60" as="sourcePoint" />
            <mxPoint x="470" y="10" as="targetPoint" />
          </mxGeometry>
        </mxCell>
        <mxCell id="etLwFJgJZtQVE6GD_fiM-34" value="" style="endArrow=none;html=1;rounded=0;entryX=0.5;entryY=1;entryDx=0;entryDy=0;exitX=0.5;exitY=0;exitDx=0;exitDy=0;" edge="1" parent="WIyWlLk6GJQsqaUBKTNV-1" source="etLwFJgJZtQVE6GD_fiM-2" target="etLwFJgJZtQVE6GD_fiM-31">
          <mxGeometry width="50" height="50" relative="1" as="geometry">
            <mxPoint x="420" y="60" as="sourcePoint" />
            <mxPoint x="470" y="10" as="targetPoint" />
          </mxGeometry>
        </mxCell>
        <mxCell id="etLwFJgJZtQVE6GD_fiM-35" value="Área" style="ellipse;whiteSpace=wrap;html=1;" vertex="1" parent="WIyWlLk6GJQsqaUBKTNV-1">
          <mxGeometry x="650" y="410" width="80" height="30" as="geometry" />
        </mxCell>
        <mxCell id="etLwFJgJZtQVE6GD_fiM-37" value="" style="endArrow=none;html=1;rounded=0;entryX=0.5;entryY=0;entryDx=0;entryDy=0;exitX=0.5;exitY=1;exitDx=0;exitDy=0;" edge="1" parent="WIyWlLk6GJQsqaUBKTNV-1" target="etLwFJgJZtQVE6GD_fiM-35" source="etLwFJgJZtQVE6GD_fiM-3">
          <mxGeometry width="50" height="50" relative="1" as="geometry">
            <mxPoint x="485" y="560" as="sourcePoint" />
            <mxPoint x="425" y="650" as="targetPoint" />
          </mxGeometry>
        </mxCell>
        <mxCell id="etLwFJgJZtQVE6GD_fiM-39" value="Plantação" style="whiteSpace=wrap;html=1;" vertex="1" parent="WIyWlLk6GJQsqaUBKTNV-1">
          <mxGeometry x="1030" y="308" width="120" height="60" as="geometry" />
        </mxCell>
        <mxCell id="etLwFJgJZtQVE6GD_fiM-40" style="edgeStyle=orthogonalEdgeStyle;rounded=0;orthogonalLoop=1;jettySize=auto;html=1;exitX=0.5;exitY=1;exitDx=0;exitDy=0;" edge="1" parent="WIyWlLk6GJQsqaUBKTNV-1" source="etLwFJgJZtQVE6GD_fiM-35" target="etLwFJgJZtQVE6GD_fiM-35">
          <mxGeometry relative="1" as="geometry" />
        </mxCell>
        <mxCell id="etLwFJgJZtQVE6GD_fiM-42" value="ID Parcela" style="ellipse;whiteSpace=wrap;html=1;" vertex="1" parent="WIyWlLk6GJQsqaUBKTNV-1">
          <mxGeometry x="530" y="410" width="80" height="30" as="geometry" />
        </mxCell>
        <mxCell id="etLwFJgJZtQVE6GD_fiM-43" value="Designação" style="ellipse;whiteSpace=wrap;html=1;" vertex="1" parent="WIyWlLk6GJQsqaUBKTNV-1">
          <mxGeometry x="760" y="410" width="80" height="30" as="geometry" />
        </mxCell>
        <mxCell id="etLwFJgJZtQVE6GD_fiM-46" value="" style="endArrow=none;html=1;rounded=0;exitX=0.5;exitY=1;exitDx=0;exitDy=0;" edge="1" parent="WIyWlLk6GJQsqaUBKTNV-1" source="etLwFJgJZtQVE6GD_fiM-3">
          <mxGeometry width="50" height="50" relative="1" as="geometry">
            <mxPoint x="750" y="298" as="sourcePoint" />
            <mxPoint x="570" y="410" as="targetPoint" />
          </mxGeometry>
        </mxCell>
        <mxCell id="etLwFJgJZtQVE6GD_fiM-47" value="" style="endArrow=none;html=1;rounded=0;exitX=0.5;exitY=1;exitDx=0;exitDy=0;entryX=0.5;entryY=0;entryDx=0;entryDy=0;" edge="1" parent="WIyWlLk6GJQsqaUBKTNV-1" source="etLwFJgJZtQVE6GD_fiM-3" target="etLwFJgJZtQVE6GD_fiM-43">
          <mxGeometry width="50" height="50" relative="1" as="geometry">
            <mxPoint x="530" y="330" as="sourcePoint" />
            <mxPoint x="580" y="280" as="targetPoint" />
          </mxGeometry>
        </mxCell>
        <mxCell id="etLwFJgJZtQVE6GD_fiM-50" value="Cultiva-se" style="rhombus;whiteSpace=wrap;html=1;" vertex="1" parent="WIyWlLk6GJQsqaUBKTNV-1">
          <mxGeometry x="870" y="298" width="80" height="80" as="geometry" />
        </mxCell>
        <mxCell id="etLwFJgJZtQVE6GD_fiM-51" value="" style="endArrow=none;html=1;rounded=0;exitX=0;exitY=0.5;exitDx=0;exitDy=0;entryX=1;entryY=0.5;entryDx=0;entryDy=0;" edge="1" parent="WIyWlLk6GJQsqaUBKTNV-1" source="etLwFJgJZtQVE6GD_fiM-50" target="etLwFJgJZtQVE6GD_fiM-3">
          <mxGeometry width="50" height="50" relative="1" as="geometry">
            <mxPoint x="530" y="330" as="sourcePoint" />
            <mxPoint x="580" y="280" as="targetPoint" />
          </mxGeometry>
        </mxCell>
        <mxCell id="etLwFJgJZtQVE6GD_fiM-52" value="" style="endArrow=none;html=1;rounded=0;entryX=1;entryY=0.5;entryDx=0;entryDy=0;" edge="1" parent="WIyWlLk6GJQsqaUBKTNV-1" source="etLwFJgJZtQVE6GD_fiM-39" target="etLwFJgJZtQVE6GD_fiM-50">
          <mxGeometry width="50" height="50" relative="1" as="geometry">
            <mxPoint x="530" y="330" as="sourcePoint" />
            <mxPoint x="580" y="280" as="targetPoint" />
          </mxGeometry>
        </mxCell>
        <mxCell id="etLwFJgJZtQVE6GD_fiM-53" value="Designação" style="ellipse;whiteSpace=wrap;html=1;" vertex="1" parent="WIyWlLk6GJQsqaUBKTNV-1">
          <mxGeometry x="700" y="-80" width="80" height="30" as="geometry" />
        </mxCell>
        <mxCell id="etLwFJgJZtQVE6GD_fiM-55" value="" style="endArrow=none;html=1;rounded=0;entryX=0.5;entryY=1;entryDx=0;entryDy=0;exitX=0.5;exitY=0;exitDx=0;exitDy=0;" edge="1" parent="WIyWlLk6GJQsqaUBKTNV-1" source="etLwFJgJZtQVE6GD_fiM-2" target="etLwFJgJZtQVE6GD_fiM-53">
          <mxGeometry width="50" height="50" relative="1" as="geometry">
            <mxPoint x="520" y="240" as="sourcePoint" />
            <mxPoint x="570" y="190" as="targetPoint" />
          </mxGeometry>
        </mxCell>
        <mxCell id="etLwFJgJZtQVE6GD_fiM-56" value="Cultura" style="whiteSpace=wrap;html=1;" vertex="1" parent="WIyWlLk6GJQsqaUBKTNV-1">
          <mxGeometry x="1500" y="308" width="120" height="60" as="geometry" />
        </mxCell>
        <mxCell id="etLwFJgJZtQVE6GD_fiM-57" value="Tem" style="rhombus;whiteSpace=wrap;html=1;" vertex="1" parent="WIyWlLk6GJQsqaUBKTNV-1">
          <mxGeometry x="1280" y="298" width="80" height="80" as="geometry" />
        </mxCell>
        <mxCell id="etLwFJgJZtQVE6GD_fiM-58" value="" style="endArrow=none;html=1;rounded=0;entryX=1;entryY=0.5;entryDx=0;entryDy=0;" edge="1" parent="WIyWlLk6GJQsqaUBKTNV-1" source="etLwFJgJZtQVE6GD_fiM-57" target="etLwFJgJZtQVE6GD_fiM-39">
          <mxGeometry width="50" height="50" relative="1" as="geometry">
            <mxPoint x="530" y="730" as="sourcePoint" />
            <mxPoint x="580" y="680" as="targetPoint" />
          </mxGeometry>
        </mxCell>
        <mxCell id="etLwFJgJZtQVE6GD_fiM-59" value="" style="endArrow=none;html=1;rounded=0;exitX=1;exitY=0.5;exitDx=0;exitDy=0;entryX=0;entryY=0.5;entryDx=0;entryDy=0;" edge="1" parent="WIyWlLk6GJQsqaUBKTNV-1" source="etLwFJgJZtQVE6GD_fiM-57" target="etLwFJgJZtQVE6GD_fiM-56">
          <mxGeometry width="50" height="50" relative="1" as="geometry">
            <mxPoint x="1440" y="338" as="sourcePoint" />
            <mxPoint x="660" y="680" as="targetPoint" />
          </mxGeometry>
        </mxCell>
        <mxCell id="etLwFJgJZtQVE6GD_fiM-60" value="1" style="text;html=1;align=center;verticalAlign=middle;resizable=0;points=[];autosize=1;strokeColor=none;fillColor=none;" vertex="1" parent="WIyWlLk6GJQsqaUBKTNV-1">
          <mxGeometry x="750" y="338" width="30" height="30" as="geometry" />
        </mxCell>
        <mxCell id="etLwFJgJZtQVE6GD_fiM-61" value="N" style="text;html=1;align=center;verticalAlign=middle;resizable=0;points=[];autosize=1;strokeColor=none;fillColor=none;" vertex="1" parent="WIyWlLk6GJQsqaUBKTNV-1">
          <mxGeometry x="1000" y="338" width="30" height="30" as="geometry" />
        </mxCell>
        <mxCell id="etLwFJgJZtQVE6GD_fiM-63" value="1" style="text;html=1;align=center;verticalAlign=middle;resizable=0;points=[];autosize=1;strokeColor=none;fillColor=none;" vertex="1" parent="WIyWlLk6GJQsqaUBKTNV-1">
          <mxGeometry x="1470" y="338" width="30" height="30" as="geometry" />
        </mxCell>
        <mxCell id="etLwFJgJZtQVE6GD_fiM-65" value="1" style="text;html=1;align=center;verticalAlign=middle;resizable=0;points=[];autosize=1;strokeColor=none;fillColor=none;" vertex="1" parent="WIyWlLk6GJQsqaUBKTNV-1">
          <mxGeometry x="1150" y="338" width="30" height="30" as="geometry" />
        </mxCell>
        <mxCell id="etLwFJgJZtQVE6GD_fiM-67" value="ID Cultura" style="ellipse;whiteSpace=wrap;html=1;" vertex="1" parent="WIyWlLk6GJQsqaUBKTNV-1">
          <mxGeometry x="1380" y="368" width="80" height="30" as="geometry" />
        </mxCell>
        <mxCell id="etLwFJgJZtQVE6GD_fiM-68" value="Designação" style="ellipse;whiteSpace=wrap;html=1;" vertex="1" parent="WIyWlLk6GJQsqaUBKTNV-1">
          <mxGeometry x="1520" y="490" width="80" height="30" as="geometry" />
        </mxCell>
        <mxCell id="etLwFJgJZtQVE6GD_fiM-69" value="Tipo Cultura" style="ellipse;whiteSpace=wrap;html=1;" vertex="1" parent="WIyWlLk6GJQsqaUBKTNV-1">
          <mxGeometry x="1670" y="368" width="80" height="30" as="geometry" />
        </mxCell>
        <mxCell id="etLwFJgJZtQVE6GD_fiM-70" value="ID Edifício" style="ellipse;whiteSpace=wrap;html=1;" vertex="1" parent="WIyWlLk6GJQsqaUBKTNV-1">
          <mxGeometry x="650" y="-120" width="80" height="30" as="geometry" />
        </mxCell>
        <mxCell id="etLwFJgJZtQVE6GD_fiM-71" value="" style="endArrow=none;html=1;rounded=0;entryX=0.5;entryY=1;entryDx=0;entryDy=0;exitX=0.5;exitY=0;exitDx=0;exitDy=0;" edge="1" parent="WIyWlLk6GJQsqaUBKTNV-1" source="etLwFJgJZtQVE6GD_fiM-2" target="etLwFJgJZtQVE6GD_fiM-70">
          <mxGeometry width="50" height="50" relative="1" as="geometry">
            <mxPoint x="450" y="180" as="sourcePoint" />
            <mxPoint x="500" y="130" as="targetPoint" />
          </mxGeometry>
        </mxCell>
        <mxCell id="etLwFJgJZtQVE6GD_fiM-72" value="" style="endArrow=none;html=1;rounded=0;exitX=1;exitY=0.5;exitDx=0;exitDy=0;entryX=0.5;entryY=1;entryDx=0;entryDy=0;" edge="1" parent="WIyWlLk6GJQsqaUBKTNV-1" source="etLwFJgJZtQVE6GD_fiM-67" target="etLwFJgJZtQVE6GD_fiM-56">
          <mxGeometry width="50" height="50" relative="1" as="geometry">
            <mxPoint x="1480" y="338" as="sourcePoint" />
            <mxPoint x="1530" y="288" as="targetPoint" />
          </mxGeometry>
        </mxCell>
        <mxCell id="etLwFJgJZtQVE6GD_fiM-73" value="" style="endArrow=none;html=1;rounded=0;entryX=0.5;entryY=0;entryDx=0;entryDy=0;exitX=0.5;exitY=1;exitDx=0;exitDy=0;" edge="1" parent="WIyWlLk6GJQsqaUBKTNV-1" source="etLwFJgJZtQVE6GD_fiM-56" target="etLwFJgJZtQVE6GD_fiM-68">
          <mxGeometry width="50" height="50" relative="1" as="geometry">
            <mxPoint x="1480" y="338" as="sourcePoint" />
            <mxPoint x="1530" y="288" as="targetPoint" />
          </mxGeometry>
        </mxCell>
        <mxCell id="etLwFJgJZtQVE6GD_fiM-74" value="" style="endArrow=none;html=1;rounded=0;entryX=0;entryY=0.5;entryDx=0;entryDy=0;exitX=0.5;exitY=1;exitDx=0;exitDy=0;" edge="1" parent="WIyWlLk6GJQsqaUBKTNV-1" source="etLwFJgJZtQVE6GD_fiM-56" target="etLwFJgJZtQVE6GD_fiM-69">
          <mxGeometry width="50" height="50" relative="1" as="geometry">
            <mxPoint x="1480" y="338" as="sourcePoint" />
            <mxPoint x="1530" y="288" as="targetPoint" />
          </mxGeometry>
        </mxCell>
        <mxCell id="etLwFJgJZtQVE6GD_fiM-75" value="Data Inicial" style="ellipse;whiteSpace=wrap;html=1;" vertex="1" parent="WIyWlLk6GJQsqaUBKTNV-1">
          <mxGeometry x="930" y="400" width="80" height="30" as="geometry" />
        </mxCell>
        <mxCell id="etLwFJgJZtQVE6GD_fiM-76" value="Quantidade" style="ellipse;whiteSpace=wrap;html=1;" vertex="1" parent="WIyWlLk6GJQsqaUBKTNV-1">
          <mxGeometry x="1100" y="428" width="80" height="30" as="geometry" />
        </mxCell>
        <mxCell id="etLwFJgJZtQVE6GD_fiM-77" value="Data Final" style="ellipse;whiteSpace=wrap;html=1;" vertex="1" parent="WIyWlLk6GJQsqaUBKTNV-1">
          <mxGeometry x="990" y="430" width="80" height="30" as="geometry" />
        </mxCell>
        <mxCell id="etLwFJgJZtQVE6GD_fiM-78" value="Unidade" style="ellipse;whiteSpace=wrap;html=1;" vertex="1" parent="WIyWlLk6GJQsqaUBKTNV-1">
          <mxGeometry x="1180" y="400" width="80" height="30" as="geometry" />
        </mxCell>
        <mxCell id="etLwFJgJZtQVE6GD_fiM-79" value="" style="endArrow=none;html=1;rounded=0;entryX=0.5;entryY=0;entryDx=0;entryDy=0;exitX=0.5;exitY=1;exitDx=0;exitDy=0;" edge="1" parent="WIyWlLk6GJQsqaUBKTNV-1" source="etLwFJgJZtQVE6GD_fiM-39" target="etLwFJgJZtQVE6GD_fiM-75">
          <mxGeometry width="50" height="50" relative="1" as="geometry">
            <mxPoint x="460" y="770" as="sourcePoint" />
            <mxPoint x="510" y="720" as="targetPoint" />
          </mxGeometry>
        </mxCell>
        <mxCell id="etLwFJgJZtQVE6GD_fiM-80" value="" style="endArrow=none;html=1;rounded=0;entryX=0.5;entryY=0;entryDx=0;entryDy=0;exitX=0.5;exitY=1;exitDx=0;exitDy=0;" edge="1" parent="WIyWlLk6GJQsqaUBKTNV-1" source="etLwFJgJZtQVE6GD_fiM-39" target="etLwFJgJZtQVE6GD_fiM-77">
          <mxGeometry width="50" height="50" relative="1" as="geometry">
            <mxPoint x="460" y="770" as="sourcePoint" />
            <mxPoint x="510" y="720" as="targetPoint" />
          </mxGeometry>
        </mxCell>
        <mxCell id="etLwFJgJZtQVE6GD_fiM-81" value="" style="endArrow=none;html=1;rounded=0;entryX=0.5;entryY=0;entryDx=0;entryDy=0;exitX=0.5;exitY=1;exitDx=0;exitDy=0;" edge="1" parent="WIyWlLk6GJQsqaUBKTNV-1" source="etLwFJgJZtQVE6GD_fiM-39" target="etLwFJgJZtQVE6GD_fiM-76">
          <mxGeometry width="50" height="50" relative="1" as="geometry">
            <mxPoint x="1150" y="370" as="sourcePoint" />
            <mxPoint x="510" y="720" as="targetPoint" />
          </mxGeometry>
        </mxCell>
        <mxCell id="etLwFJgJZtQVE6GD_fiM-82" value="" style="endArrow=none;html=1;rounded=0;exitX=0.5;exitY=0;exitDx=0;exitDy=0;entryX=0.5;entryY=1;entryDx=0;entryDy=0;" edge="1" parent="WIyWlLk6GJQsqaUBKTNV-1" source="etLwFJgJZtQVE6GD_fiM-78" target="etLwFJgJZtQVE6GD_fiM-39">
          <mxGeometry width="50" height="50" relative="1" as="geometry">
            <mxPoint x="460" y="770" as="sourcePoint" />
            <mxPoint x="510" y="720" as="targetPoint" />
          </mxGeometry>
        </mxCell>
        <mxCell id="etLwFJgJZtQVE6GD_fiM-83" value="Fator de Produção" style="whiteSpace=wrap;html=1;" vertex="1" parent="WIyWlLk6GJQsqaUBKTNV-1">
          <mxGeometry x="1940" y="20" width="120" height="60" as="geometry" />
        </mxCell>
        <mxCell id="etLwFJgJZtQVE6GD_fiM-99" value="Operação" style="rounded=0;whiteSpace=wrap;html=1;" vertex="1" parent="WIyWlLk6GJQsqaUBKTNV-1">
          <mxGeometry x="1030" y="20" width="120" height="60" as="geometry" />
        </mxCell>
        <mxCell id="etLwFJgJZtQVE6GD_fiM-101" value="ID Plantação" style="ellipse;whiteSpace=wrap;html=1;" vertex="1" parent="WIyWlLk6GJQsqaUBKTNV-1">
          <mxGeometry x="1050" y="470" width="80" height="30" as="geometry" />
        </mxCell>
        <mxCell id="etLwFJgJZtQVE6GD_fiM-102" value="" style="endArrow=none;html=1;rounded=0;entryX=0.5;entryY=1;entryDx=0;entryDy=0;exitX=0.5;exitY=0;exitDx=0;exitDy=0;" edge="1" parent="WIyWlLk6GJQsqaUBKTNV-1" source="etLwFJgJZtQVE6GD_fiM-101" target="etLwFJgJZtQVE6GD_fiM-39">
          <mxGeometry width="50" height="50" relative="1" as="geometry">
            <mxPoint x="900" y="420" as="sourcePoint" />
            <mxPoint x="950" y="370" as="targetPoint" />
          </mxGeometry>
        </mxCell>
        <mxCell id="etLwFJgJZtQVE6GD_fiM-103" value="Aplica-se" style="rhombus;whiteSpace=wrap;html=1;" vertex="1" parent="WIyWlLk6GJQsqaUBKTNV-1">
          <mxGeometry x="1050" y="155" width="80" height="80" as="geometry" />
        </mxCell>
        <mxCell id="etLwFJgJZtQVE6GD_fiM-105" value="" style="endArrow=none;html=1;rounded=0;exitX=0.5;exitY=0;exitDx=0;exitDy=0;entryX=0.5;entryY=1;entryDx=0;entryDy=0;" edge="1" parent="WIyWlLk6GJQsqaUBKTNV-1" source="etLwFJgJZtQVE6GD_fiM-39" target="etLwFJgJZtQVE6GD_fiM-103">
          <mxGeometry width="50" height="50" relative="1" as="geometry">
            <mxPoint x="1150" y="220" as="sourcePoint" />
            <mxPoint x="1200" y="170" as="targetPoint" />
          </mxGeometry>
        </mxCell>
        <mxCell id="etLwFJgJZtQVE6GD_fiM-106" value="" style="endArrow=none;html=1;rounded=0;entryX=0.5;entryY=1;entryDx=0;entryDy=0;exitX=0.5;exitY=0;exitDx=0;exitDy=0;" edge="1" parent="WIyWlLk6GJQsqaUBKTNV-1" source="etLwFJgJZtQVE6GD_fiM-103" target="etLwFJgJZtQVE6GD_fiM-99">
          <mxGeometry width="50" height="50" relative="1" as="geometry">
            <mxPoint x="1150" y="220" as="sourcePoint" />
            <mxPoint x="1200" y="170" as="targetPoint" />
          </mxGeometry>
        </mxCell>
        <mxCell id="etLwFJgJZtQVE6GD_fiM-107" value="Pode Ser" style="rhombus;whiteSpace=wrap;html=1;" vertex="1" parent="WIyWlLk6GJQsqaUBKTNV-1">
          <mxGeometry x="1280" y="10" width="80" height="80" as="geometry" />
        </mxCell>
        <mxCell id="etLwFJgJZtQVE6GD_fiM-108" value="Fertilização" style="whiteSpace=wrap;html=1;" vertex="1" parent="WIyWlLk6GJQsqaUBKTNV-1">
          <mxGeometry x="1490" y="20" width="120" height="60" as="geometry" />
        </mxCell>
        <mxCell id="etLwFJgJZtQVE6GD_fiM-109" value="" style="endArrow=none;html=1;rounded=0;exitX=1;exitY=0.5;exitDx=0;exitDy=0;entryX=0;entryY=0.5;entryDx=0;entryDy=0;" edge="1" parent="WIyWlLk6GJQsqaUBKTNV-1" source="etLwFJgJZtQVE6GD_fiM-99" target="etLwFJgJZtQVE6GD_fiM-107">
          <mxGeometry width="50" height="50" relative="1" as="geometry">
            <mxPoint x="1260" y="220" as="sourcePoint" />
            <mxPoint x="1310" y="170" as="targetPoint" />
          </mxGeometry>
        </mxCell>
        <mxCell id="etLwFJgJZtQVE6GD_fiM-110" value="" style="endArrow=none;html=1;rounded=0;entryX=0;entryY=0.5;entryDx=0;entryDy=0;exitX=1;exitY=0.5;exitDx=0;exitDy=0;" edge="1" parent="WIyWlLk6GJQsqaUBKTNV-1" source="etLwFJgJZtQVE6GD_fiM-107" target="etLwFJgJZtQVE6GD_fiM-108">
          <mxGeometry width="50" height="50" relative="1" as="geometry">
            <mxPoint x="1270" y="220" as="sourcePoint" />
            <mxPoint x="1320" y="170" as="targetPoint" />
          </mxGeometry>
        </mxCell>
        <mxCell id="etLwFJgJZtQVE6GD_fiM-111" value="1" style="text;html=1;align=center;verticalAlign=middle;resizable=0;points=[];autosize=1;strokeColor=none;fillColor=none;" vertex="1" parent="WIyWlLk6GJQsqaUBKTNV-1">
          <mxGeometry x="1060" y="278" width="30" height="30" as="geometry" />
        </mxCell>
        <mxCell id="etLwFJgJZtQVE6GD_fiM-112" value="N" style="text;html=1;align=center;verticalAlign=middle;resizable=0;points=[];autosize=1;strokeColor=none;fillColor=none;" vertex="1" parent="WIyWlLk6GJQsqaUBKTNV-1">
          <mxGeometry x="1060" y="80" width="30" height="30" as="geometry" />
        </mxCell>
        <mxCell id="etLwFJgJZtQVE6GD_fiM-114" value="1" style="text;html=1;align=center;verticalAlign=middle;resizable=0;points=[];autosize=1;strokeColor=none;fillColor=none;" vertex="1" parent="WIyWlLk6GJQsqaUBKTNV-1">
          <mxGeometry x="1150" y="50" width="30" height="30" as="geometry" />
        </mxCell>
        <mxCell id="etLwFJgJZtQVE6GD_fiM-115" value="0,1" style="text;html=1;align=center;verticalAlign=middle;resizable=0;points=[];autosize=1;strokeColor=none;fillColor=none;" vertex="1" parent="WIyWlLk6GJQsqaUBKTNV-1">
          <mxGeometry x="1450" y="50" width="40" height="30" as="geometry" />
        </mxCell>
        <mxCell id="etLwFJgJZtQVE6GD_fiM-116" value="Usa" style="rhombus;whiteSpace=wrap;html=1;" vertex="1" parent="WIyWlLk6GJQsqaUBKTNV-1">
          <mxGeometry x="1740" y="10" width="80" height="80" as="geometry" />
        </mxCell>
        <mxCell id="etLwFJgJZtQVE6GD_fiM-117" value="" style="endArrow=none;html=1;rounded=0;exitX=1;exitY=0.5;exitDx=0;exitDy=0;entryX=0;entryY=0.5;entryDx=0;entryDy=0;" edge="1" parent="WIyWlLk6GJQsqaUBKTNV-1" source="etLwFJgJZtQVE6GD_fiM-108" target="etLwFJgJZtQVE6GD_fiM-116">
          <mxGeometry width="50" height="50" relative="1" as="geometry">
            <mxPoint x="1690" y="220" as="sourcePoint" />
            <mxPoint x="1740" y="170" as="targetPoint" />
          </mxGeometry>
        </mxCell>
        <mxCell id="etLwFJgJZtQVE6GD_fiM-118" value="" style="endArrow=none;html=1;rounded=0;entryX=0;entryY=0.5;entryDx=0;entryDy=0;exitX=1;exitY=0.5;exitDx=0;exitDy=0;" edge="1" parent="WIyWlLk6GJQsqaUBKTNV-1" source="etLwFJgJZtQVE6GD_fiM-116" target="etLwFJgJZtQVE6GD_fiM-83">
          <mxGeometry width="50" height="50" relative="1" as="geometry">
            <mxPoint x="1690" y="220" as="sourcePoint" />
            <mxPoint x="1740" y="170" as="targetPoint" />
          </mxGeometry>
        </mxCell>
        <mxCell id="etLwFJgJZtQVE6GD_fiM-119" value="1" style="text;html=1;align=center;verticalAlign=middle;resizable=0;points=[];autosize=1;strokeColor=none;fillColor=none;" vertex="1" parent="WIyWlLk6GJQsqaUBKTNV-1">
          <mxGeometry x="1610" y="50" width="30" height="30" as="geometry" />
        </mxCell>
        <mxCell id="etLwFJgJZtQVE6GD_fiM-120" value="1" style="text;html=1;align=center;verticalAlign=middle;resizable=0;points=[];autosize=1;strokeColor=none;fillColor=none;" vertex="1" parent="WIyWlLk6GJQsqaUBKTNV-1">
          <mxGeometry x="1910" y="50" width="30" height="30" as="geometry" />
        </mxCell>
        <mxCell id="etLwFJgJZtQVE6GD_fiM-121" value="ID Operação" style="ellipse;whiteSpace=wrap;html=1;" vertex="1" parent="WIyWlLk6GJQsqaUBKTNV-1">
          <mxGeometry x="1000" y="-100" width="80" height="30" as="geometry" />
        </mxCell>
        <mxCell id="etLwFJgJZtQVE6GD_fiM-122" value="Data Operação" style="ellipse;whiteSpace=wrap;html=1;" vertex="1" parent="WIyWlLk6GJQsqaUBKTNV-1">
          <mxGeometry x="950" y="-50" width="80" height="30" as="geometry" />
        </mxCell>
        <mxCell id="etLwFJgJZtQVE6GD_fiM-123" value="Data Operação" style="ellipse;whiteSpace=wrap;html=1;" vertex="1" parent="WIyWlLk6GJQsqaUBKTNV-1">
          <mxGeometry x="1150" y="-50" width="80" height="30" as="geometry" />
        </mxCell>
        <mxCell id="etLwFJgJZtQVE6GD_fiM-124" value="Unidade" style="ellipse;whiteSpace=wrap;html=1;" vertex="1" parent="WIyWlLk6GJQsqaUBKTNV-1">
          <mxGeometry x="1100" y="-100" width="80" height="30" as="geometry" />
        </mxCell>
        <mxCell id="etLwFJgJZtQVE6GD_fiM-125" value="" style="endArrow=none;html=1;rounded=0;entryX=0.5;entryY=1;entryDx=0;entryDy=0;exitX=0.5;exitY=0;exitDx=0;exitDy=0;" edge="1" parent="WIyWlLk6GJQsqaUBKTNV-1" source="etLwFJgJZtQVE6GD_fiM-99" target="etLwFJgJZtQVE6GD_fiM-123">
          <mxGeometry width="50" height="50" relative="1" as="geometry">
            <mxPoint x="1180" y="220" as="sourcePoint" />
            <mxPoint x="1230" y="170" as="targetPoint" />
          </mxGeometry>
        </mxCell>
        <mxCell id="etLwFJgJZtQVE6GD_fiM-126" value="" style="endArrow=none;html=1;rounded=0;entryX=0.5;entryY=1;entryDx=0;entryDy=0;exitX=0.5;exitY=0;exitDx=0;exitDy=0;" edge="1" parent="WIyWlLk6GJQsqaUBKTNV-1" source="etLwFJgJZtQVE6GD_fiM-99" target="etLwFJgJZtQVE6GD_fiM-124">
          <mxGeometry width="50" height="50" relative="1" as="geometry">
            <mxPoint x="1180" y="220" as="sourcePoint" />
            <mxPoint x="1230" y="170" as="targetPoint" />
          </mxGeometry>
        </mxCell>
        <mxCell id="etLwFJgJZtQVE6GD_fiM-127" value="" style="endArrow=none;html=1;rounded=0;entryX=0.5;entryY=1;entryDx=0;entryDy=0;exitX=0.5;exitY=0;exitDx=0;exitDy=0;" edge="1" parent="WIyWlLk6GJQsqaUBKTNV-1" source="etLwFJgJZtQVE6GD_fiM-99" target="etLwFJgJZtQVE6GD_fiM-121">
          <mxGeometry width="50" height="50" relative="1" as="geometry">
            <mxPoint x="1180" y="220" as="sourcePoint" />
            <mxPoint x="1230" y="170" as="targetPoint" />
          </mxGeometry>
        </mxCell>
        <mxCell id="etLwFJgJZtQVE6GD_fiM-128" value="" style="endArrow=none;html=1;rounded=0;entryX=0.5;entryY=1;entryDx=0;entryDy=0;" edge="1" parent="WIyWlLk6GJQsqaUBKTNV-1" target="etLwFJgJZtQVE6GD_fiM-122">
          <mxGeometry width="50" height="50" relative="1" as="geometry">
            <mxPoint x="1090" y="20" as="sourcePoint" />
            <mxPoint x="1230" y="170" as="targetPoint" />
          </mxGeometry>
        </mxCell>
        <mxCell id="etLwFJgJZtQVE6GD_fiM-129" value="Ficha Técnica" style="whiteSpace=wrap;html=1;" vertex="1" parent="WIyWlLk6GJQsqaUBKTNV-1">
          <mxGeometry x="1940" y="-230" width="120" height="60" as="geometry" />
        </mxCell>
        <mxCell id="etLwFJgJZtQVE6GD_fiM-131" value="Elemento" style="whiteSpace=wrap;html=1;" vertex="1" parent="WIyWlLk6GJQsqaUBKTNV-1">
          <mxGeometry x="1940" y="-490" width="120" height="60" as="geometry" />
        </mxCell>
        <mxCell id="etLwFJgJZtQVE6GD_fiM-132" value="Contém" style="rhombus;whiteSpace=wrap;html=1;" vertex="1" parent="WIyWlLk6GJQsqaUBKTNV-1">
          <mxGeometry x="1960" y="-110" width="80" height="80" as="geometry" />
        </mxCell>
        <mxCell id="etLwFJgJZtQVE6GD_fiM-133" value="Contém" style="rhombus;whiteSpace=wrap;html=1;" vertex="1" parent="WIyWlLk6GJQsqaUBKTNV-1">
          <mxGeometry x="1960" y="-370" width="80" height="80" as="geometry" />
        </mxCell>
        <mxCell id="etLwFJgJZtQVE6GD_fiM-134" value="" style="endArrow=none;html=1;rounded=0;exitX=0.5;exitY=0;exitDx=0;exitDy=0;entryX=0.5;entryY=1;entryDx=0;entryDy=0;" edge="1" parent="WIyWlLk6GJQsqaUBKTNV-1" target="etLwFJgJZtQVE6GD_fiM-129">
          <mxGeometry width="50" height="50" relative="1" as="geometry">
            <mxPoint x="1985" y="-170" as="sourcePoint" />
            <mxPoint x="1910" y="-230" as="targetPoint" />
          </mxGeometry>
        </mxCell>
        <mxCell id="etLwFJgJZtQVE6GD_fiM-135" value="" style="endArrow=none;html=1;rounded=0;exitX=0.5;exitY=0;exitDx=0;exitDy=0;entryX=0.5;entryY=1;entryDx=0;entryDy=0;" edge="1" parent="WIyWlLk6GJQsqaUBKTNV-1" source="etLwFJgJZtQVE6GD_fiM-83" target="etLwFJgJZtQVE6GD_fiM-132">
          <mxGeometry width="50" height="50" relative="1" as="geometry">
            <mxPoint x="1860" y="-180" as="sourcePoint" />
            <mxPoint x="1910" y="-230" as="targetPoint" />
          </mxGeometry>
        </mxCell>
        <mxCell id="etLwFJgJZtQVE6GD_fiM-136" value="" style="endArrow=none;html=1;rounded=0;entryX=0.5;entryY=1;entryDx=0;entryDy=0;exitX=0.5;exitY=0;exitDx=0;exitDy=0;" edge="1" parent="WIyWlLk6GJQsqaUBKTNV-1" source="etLwFJgJZtQVE6GD_fiM-133" target="etLwFJgJZtQVE6GD_fiM-131">
          <mxGeometry width="50" height="50" relative="1" as="geometry">
            <mxPoint x="1860" y="-180" as="sourcePoint" />
            <mxPoint x="1910" y="-230" as="targetPoint" />
          </mxGeometry>
        </mxCell>
        <mxCell id="etLwFJgJZtQVE6GD_fiM-137" value="" style="endArrow=none;html=1;rounded=0;entryX=0.5;entryY=1;entryDx=0;entryDy=0;exitX=0.5;exitY=0;exitDx=0;exitDy=0;" edge="1" parent="WIyWlLk6GJQsqaUBKTNV-1" source="etLwFJgJZtQVE6GD_fiM-129" target="etLwFJgJZtQVE6GD_fiM-133">
          <mxGeometry width="50" height="50" relative="1" as="geometry">
            <mxPoint x="1860" y="-180" as="sourcePoint" />
            <mxPoint x="1910" y="-230" as="targetPoint" />
          </mxGeometry>
        </mxCell>
        <mxCell id="etLwFJgJZtQVE6GD_fiM-138" value="1" style="text;html=1;align=center;verticalAlign=middle;resizable=0;points=[];autosize=1;strokeColor=none;fillColor=none;" vertex="1" parent="WIyWlLk6GJQsqaUBKTNV-1">
          <mxGeometry x="1970" y="-10" width="30" height="30" as="geometry" />
        </mxCell>
        <mxCell id="etLwFJgJZtQVE6GD_fiM-140" value="" style="endArrow=none;html=1;rounded=0;exitX=0.5;exitY=0;exitDx=0;exitDy=0;entryX=0.5;entryY=1;entryDx=0;entryDy=0;" edge="1" parent="WIyWlLk6GJQsqaUBKTNV-1" source="etLwFJgJZtQVE6GD_fiM-132" target="etLwFJgJZtQVE6GD_fiM-129">
          <mxGeometry width="50" height="50" relative="1" as="geometry">
            <mxPoint x="2000" y="-110" as="sourcePoint" />
            <mxPoint x="1985" y="-140" as="targetPoint" />
          </mxGeometry>
        </mxCell>
        <mxCell id="etLwFJgJZtQVE6GD_fiM-141" value="N" style="text;html=1;align=center;verticalAlign=middle;resizable=0;points=[];autosize=1;strokeColor=none;fillColor=none;" vertex="1" parent="WIyWlLk6GJQsqaUBKTNV-1">
          <mxGeometry x="1970" y="-430" width="30" height="30" as="geometry" />
        </mxCell>
        <mxCell id="etLwFJgJZtQVE6GD_fiM-143" value="1" style="text;html=1;align=center;verticalAlign=middle;resizable=0;points=[];autosize=1;strokeColor=none;fillColor=none;" vertex="1" parent="WIyWlLk6GJQsqaUBKTNV-1">
          <mxGeometry x="1970" y="-260" width="30" height="30" as="geometry" />
        </mxCell>
        <mxCell id="etLwFJgJZtQVE6GD_fiM-144" value="1" style="text;html=1;align=center;verticalAlign=middle;resizable=0;points=[];autosize=1;strokeColor=none;fillColor=none;" vertex="1" parent="WIyWlLk6GJQsqaUBKTNV-1">
          <mxGeometry x="1970" y="-170" width="30" height="30" as="geometry" />
        </mxCell>
        <mxCell id="etLwFJgJZtQVE6GD_fiM-145" value="Nome Comercial" style="ellipse;whiteSpace=wrap;html=1;" vertex="1" parent="WIyWlLk6GJQsqaUBKTNV-1">
          <mxGeometry x="2060" y="-50" width="80" height="30" as="geometry" />
        </mxCell>
        <mxCell id="etLwFJgJZtQVE6GD_fiM-146" value="Formulação" style="ellipse;whiteSpace=wrap;html=1;" vertex="1" parent="WIyWlLk6GJQsqaUBKTNV-1">
          <mxGeometry x="2120" y="-20" width="80" height="30" as="geometry" />
        </mxCell>
        <mxCell id="etLwFJgJZtQVE6GD_fiM-148" value="Fabricante" style="ellipse;whiteSpace=wrap;html=1;" vertex="1" parent="WIyWlLk6GJQsqaUBKTNV-1">
          <mxGeometry x="2120" y="100" width="80" height="30" as="geometry" />
        </mxCell>
        <mxCell id="etLwFJgJZtQVE6GD_fiM-149" value="Tipo Fator de Produção" style="ellipse;whiteSpace=wrap;html=1;" vertex="1" parent="WIyWlLk6GJQsqaUBKTNV-1">
          <mxGeometry x="2180" y="60" width="100" height="40" as="geometry" />
        </mxCell>
        <mxCell id="etLwFJgJZtQVE6GD_fiM-151" value="ID Fator de Produção" style="ellipse;whiteSpace=wrap;html=1;" vertex="1" parent="WIyWlLk6GJQsqaUBKTNV-1">
          <mxGeometry x="2180" y="10" width="100" height="40" as="geometry" />
        </mxCell>
        <mxCell id="etLwFJgJZtQVE6GD_fiM-152" value="Aplicação" style="ellipse;whiteSpace=wrap;html=1;" vertex="1" parent="WIyWlLk6GJQsqaUBKTNV-1">
          <mxGeometry x="2060" y="130" width="80" height="30" as="geometry" />
        </mxCell>
        <mxCell id="etLwFJgJZtQVE6GD_fiM-153" value="" style="endArrow=none;html=1;rounded=0;entryX=0.5;entryY=1;entryDx=0;entryDy=0;exitX=1;exitY=0.5;exitDx=0;exitDy=0;" edge="1" parent="WIyWlLk6GJQsqaUBKTNV-1" source="etLwFJgJZtQVE6GD_fiM-83" target="etLwFJgJZtQVE6GD_fiM-145">
          <mxGeometry width="50" height="50" relative="1" as="geometry">
            <mxPoint x="1950" y="20" as="sourcePoint" />
            <mxPoint x="2000" y="-30" as="targetPoint" />
          </mxGeometry>
        </mxCell>
        <mxCell id="etLwFJgJZtQVE6GD_fiM-154" value="" style="endArrow=none;html=1;rounded=0;entryX=0.5;entryY=1;entryDx=0;entryDy=0;exitX=1;exitY=0.5;exitDx=0;exitDy=0;" edge="1" parent="WIyWlLk6GJQsqaUBKTNV-1" source="etLwFJgJZtQVE6GD_fiM-83" target="etLwFJgJZtQVE6GD_fiM-146">
          <mxGeometry width="50" height="50" relative="1" as="geometry">
            <mxPoint x="1950" y="20" as="sourcePoint" />
            <mxPoint x="2000" y="-30" as="targetPoint" />
          </mxGeometry>
        </mxCell>
        <mxCell id="etLwFJgJZtQVE6GD_fiM-155" value="" style="endArrow=none;html=1;rounded=0;entryX=0;entryY=0.5;entryDx=0;entryDy=0;exitX=1;exitY=0.5;exitDx=0;exitDy=0;" edge="1" parent="WIyWlLk6GJQsqaUBKTNV-1" source="etLwFJgJZtQVE6GD_fiM-83" target="etLwFJgJZtQVE6GD_fiM-151">
          <mxGeometry width="50" height="50" relative="1" as="geometry">
            <mxPoint x="1950" y="20" as="sourcePoint" />
            <mxPoint x="2000" y="-30" as="targetPoint" />
          </mxGeometry>
        </mxCell>
        <mxCell id="etLwFJgJZtQVE6GD_fiM-156" value="" style="endArrow=none;html=1;rounded=0;entryX=0;entryY=0.5;entryDx=0;entryDy=0;exitX=1;exitY=0.5;exitDx=0;exitDy=0;" edge="1" parent="WIyWlLk6GJQsqaUBKTNV-1" source="etLwFJgJZtQVE6GD_fiM-83" target="etLwFJgJZtQVE6GD_fiM-149">
          <mxGeometry width="50" height="50" relative="1" as="geometry">
            <mxPoint x="1950" y="20" as="sourcePoint" />
            <mxPoint x="2000" y="-30" as="targetPoint" />
          </mxGeometry>
        </mxCell>
        <mxCell id="etLwFJgJZtQVE6GD_fiM-157" value="" style="endArrow=none;html=1;rounded=0;entryX=0.5;entryY=0;entryDx=0;entryDy=0;exitX=1;exitY=0.5;exitDx=0;exitDy=0;" edge="1" parent="WIyWlLk6GJQsqaUBKTNV-1" source="etLwFJgJZtQVE6GD_fiM-83" target="etLwFJgJZtQVE6GD_fiM-148">
          <mxGeometry width="50" height="50" relative="1" as="geometry">
            <mxPoint x="1950" y="20" as="sourcePoint" />
            <mxPoint x="2000" y="-30" as="targetPoint" />
          </mxGeometry>
        </mxCell>
        <mxCell id="etLwFJgJZtQVE6GD_fiM-158" value="" style="endArrow=none;html=1;rounded=0;entryX=0.5;entryY=0;entryDx=0;entryDy=0;exitX=1;exitY=0.5;exitDx=0;exitDy=0;" edge="1" parent="WIyWlLk6GJQsqaUBKTNV-1" source="etLwFJgJZtQVE6GD_fiM-83" target="etLwFJgJZtQVE6GD_fiM-152">
          <mxGeometry width="50" height="50" relative="1" as="geometry">
            <mxPoint x="1950" y="20" as="sourcePoint" />
            <mxPoint x="2000" y="-30" as="targetPoint" />
          </mxGeometry>
        </mxCell>
        <mxCell id="etLwFJgJZtQVE6GD_fiM-159" value="Quantidade" style="ellipse;whiteSpace=wrap;html=1;" vertex="1" parent="WIyWlLk6GJQsqaUBKTNV-1">
          <mxGeometry x="2140" y="-240" width="80" height="30" as="geometry" />
        </mxCell>
        <mxCell id="etLwFJgJZtQVE6GD_fiM-160" value="" style="endArrow=none;html=1;rounded=0;entryX=0;entryY=0.5;entryDx=0;entryDy=0;exitX=1;exitY=0.5;exitDx=0;exitDy=0;" edge="1" parent="WIyWlLk6GJQsqaUBKTNV-1" source="etLwFJgJZtQVE6GD_fiM-129" target="etLwFJgJZtQVE6GD_fiM-159">
          <mxGeometry width="50" height="50" relative="1" as="geometry">
            <mxPoint x="1950" y="-180" as="sourcePoint" />
            <mxPoint x="2000" y="-230" as="targetPoint" />
          </mxGeometry>
        </mxCell>
        <mxCell id="etLwFJgJZtQVE6GD_fiM-161" value="ID Elemento" style="ellipse;whiteSpace=wrap;html=1;" vertex="1" parent="WIyWlLk6GJQsqaUBKTNV-1">
          <mxGeometry x="1910" y="-560" width="80" height="30" as="geometry" />
        </mxCell>
        <mxCell id="etLwFJgJZtQVE6GD_fiM-162" value="Designação" style="ellipse;whiteSpace=wrap;html=1;" vertex="1" parent="WIyWlLk6GJQsqaUBKTNV-1">
          <mxGeometry x="2010" y="-560" width="80" height="30" as="geometry" />
        </mxCell>
        <mxCell id="etLwFJgJZtQVE6GD_fiM-163" value="Unidade" style="ellipse;whiteSpace=wrap;html=1;" vertex="1" parent="WIyWlLk6GJQsqaUBKTNV-1">
          <mxGeometry x="2140" y="-190" width="80" height="30" as="geometry" />
        </mxCell>
        <mxCell id="etLwFJgJZtQVE6GD_fiM-164" value="" style="endArrow=none;html=1;rounded=0;entryX=0;entryY=0.5;entryDx=0;entryDy=0;exitX=1;exitY=0.5;exitDx=0;exitDy=0;" edge="1" parent="WIyWlLk6GJQsqaUBKTNV-1" source="etLwFJgJZtQVE6GD_fiM-129" target="etLwFJgJZtQVE6GD_fiM-163">
          <mxGeometry width="50" height="50" relative="1" as="geometry">
            <mxPoint x="2080" y="-160" as="sourcePoint" />
            <mxPoint x="2000" y="-230" as="targetPoint" />
          </mxGeometry>
        </mxCell>
        <mxCell id="etLwFJgJZtQVE6GD_fiM-165" value="" style="endArrow=none;html=1;rounded=0;entryX=0.5;entryY=1;entryDx=0;entryDy=0;exitX=0.5;exitY=0;exitDx=0;exitDy=0;" edge="1" parent="WIyWlLk6GJQsqaUBKTNV-1" source="etLwFJgJZtQVE6GD_fiM-131" target="etLwFJgJZtQVE6GD_fiM-162">
          <mxGeometry width="50" height="50" relative="1" as="geometry">
            <mxPoint x="1950" y="-180" as="sourcePoint" />
            <mxPoint x="2000" y="-230" as="targetPoint" />
          </mxGeometry>
        </mxCell>
        <mxCell id="etLwFJgJZtQVE6GD_fiM-166" value="" style="endArrow=none;html=1;rounded=0;entryX=0.5;entryY=1;entryDx=0;entryDy=0;exitX=0.5;exitY=0;exitDx=0;exitDy=0;" edge="1" parent="WIyWlLk6GJQsqaUBKTNV-1" source="etLwFJgJZtQVE6GD_fiM-131" target="etLwFJgJZtQVE6GD_fiM-161">
          <mxGeometry width="50" height="50" relative="1" as="geometry">
            <mxPoint x="1950" y="-180" as="sourcePoint" />
            <mxPoint x="2000" y="-230" as="targetPoint" />
          </mxGeometry>
        </mxCell>
        <mxCell id="etLwFJgJZtQVE6GD_fiM-167" value="ID Ficha" style="ellipse;whiteSpace=wrap;html=1;" vertex="1" parent="WIyWlLk6GJQsqaUBKTNV-1">
          <mxGeometry x="2220" y="-215" width="80" height="30" as="geometry" />
        </mxCell>
        <mxCell id="etLwFJgJZtQVE6GD_fiM-168" value="" style="endArrow=none;html=1;rounded=0;entryX=0;entryY=0.5;entryDx=0;entryDy=0;exitX=1;exitY=0.5;exitDx=0;exitDy=0;" edge="1" parent="WIyWlLk6GJQsqaUBKTNV-1" source="etLwFJgJZtQVE6GD_fiM-129" target="etLwFJgJZtQVE6GD_fiM-167">
          <mxGeometry width="50" height="50" relative="1" as="geometry">
            <mxPoint x="1940" y="-180" as="sourcePoint" />
            <mxPoint x="1990" y="-230" as="targetPoint" />
          </mxGeometry>
        </mxCell>
        <mxCell id="etLwFJgJZtQVE6GD_fiM-172" value="Especíe" style="ellipse;whiteSpace=wrap;html=1;" vertex="1" parent="WIyWlLk6GJQsqaUBKTNV-1">
          <mxGeometry x="1470" y="450" width="80" height="30" as="geometry" />
        </mxCell>
        <mxCell id="etLwFJgJZtQVE6GD_fiM-173" value="Floração" style="ellipse;whiteSpace=wrap;html=1;" vertex="1" parent="WIyWlLk6GJQsqaUBKTNV-1">
          <mxGeometry x="1620" y="410" width="80" height="30" as="geometry" />
        </mxCell>
        <mxCell id="etLwFJgJZtQVE6GD_fiM-174" value="Colheita" style="ellipse;whiteSpace=wrap;html=1;" vertex="1" parent="WIyWlLk6GJQsqaUBKTNV-1">
          <mxGeometry x="1420" y="410" width="80" height="30" as="geometry" />
        </mxCell>
        <mxCell id="etLwFJgJZtQVE6GD_fiM-177" value="Varieadade" style="ellipse;whiteSpace=wrap;html=1;" vertex="1" parent="WIyWlLk6GJQsqaUBKTNV-1">
          <mxGeometry x="1570" y="450" width="80" height="30" as="geometry" />
        </mxCell>
        <mxCell id="etLwFJgJZtQVE6GD_fiM-178" value="" style="endArrow=none;html=1;rounded=0;entryX=0.5;entryY=1;entryDx=0;entryDy=0;exitX=0.5;exitY=0;exitDx=0;exitDy=0;" edge="1" parent="WIyWlLk6GJQsqaUBKTNV-1" source="etLwFJgJZtQVE6GD_fiM-174" target="etLwFJgJZtQVE6GD_fiM-56">
          <mxGeometry width="50" height="50" relative="1" as="geometry">
            <mxPoint x="1370" y="500" as="sourcePoint" />
            <mxPoint x="1420" y="450" as="targetPoint" />
          </mxGeometry>
        </mxCell>
        <mxCell id="etLwFJgJZtQVE6GD_fiM-179" value="" style="endArrow=none;html=1;rounded=0;entryX=0.5;entryY=1;entryDx=0;entryDy=0;exitX=0.5;exitY=0;exitDx=0;exitDy=0;" edge="1" parent="WIyWlLk6GJQsqaUBKTNV-1" source="etLwFJgJZtQVE6GD_fiM-172" target="etLwFJgJZtQVE6GD_fiM-56">
          <mxGeometry width="50" height="50" relative="1" as="geometry">
            <mxPoint x="1370" y="500" as="sourcePoint" />
            <mxPoint x="1420" y="450" as="targetPoint" />
          </mxGeometry>
        </mxCell>
        <mxCell id="etLwFJgJZtQVE6GD_fiM-180" value="" style="endArrow=none;html=1;rounded=0;entryX=0.5;entryY=1;entryDx=0;entryDy=0;exitX=0.5;exitY=0;exitDx=0;exitDy=0;" edge="1" parent="WIyWlLk6GJQsqaUBKTNV-1" source="etLwFJgJZtQVE6GD_fiM-177" target="etLwFJgJZtQVE6GD_fiM-56">
          <mxGeometry width="50" height="50" relative="1" as="geometry">
            <mxPoint x="1370" y="500" as="sourcePoint" />
            <mxPoint x="1420" y="450" as="targetPoint" />
          </mxGeometry>
        </mxCell>
        <mxCell id="etLwFJgJZtQVE6GD_fiM-181" value="" style="endArrow=none;html=1;rounded=0;exitX=0.5;exitY=0;exitDx=0;exitDy=0;entryX=0.5;entryY=1;entryDx=0;entryDy=0;" edge="1" parent="WIyWlLk6GJQsqaUBKTNV-1" source="etLwFJgJZtQVE6GD_fiM-173" target="etLwFJgJZtQVE6GD_fiM-56">
          <mxGeometry width="50" height="50" relative="1" as="geometry">
            <mxPoint x="1370" y="500" as="sourcePoint" />
            <mxPoint x="1560" y="370" as="targetPoint" />
          </mxGeometry>
        </mxCell>
        <mxCell id="etLwFJgJZtQVE6GD_fiM-186" value="Regista no" style="rhombus;whiteSpace=wrap;html=1;" vertex="1" parent="WIyWlLk6GJQsqaUBKTNV-1">
          <mxGeometry x="120" y="510" width="80" height="80" as="geometry" />
        </mxCell>
        <mxCell id="etLwFJgJZtQVE6GD_fiM-187" value="Caderno de Campo" style="rounded=0;whiteSpace=wrap;html=1;" vertex="1" parent="WIyWlLk6GJQsqaUBKTNV-1">
          <mxGeometry x="355" y="520" width="120" height="60" as="geometry" />
        </mxCell>
        <mxCell id="etLwFJgJZtQVE6GD_fiM-188" value="" style="endArrow=none;html=1;rounded=0;entryX=0.5;entryY=1;entryDx=0;entryDy=0;exitX=0.5;exitY=0;exitDx=0;exitDy=0;" edge="1" parent="WIyWlLk6GJQsqaUBKTNV-1" source="etLwFJgJZtQVE6GD_fiM-186" target="etLwFJgJZtQVE6GD_fiM-0">
          <mxGeometry width="50" height="50" relative="1" as="geometry">
            <mxPoint x="450" y="600" as="sourcePoint" />
            <mxPoint x="500" y="550" as="targetPoint" />
          </mxGeometry>
        </mxCell>
        <mxCell id="etLwFJgJZtQVE6GD_fiM-189" value="" style="endArrow=none;html=1;rounded=0;exitX=0;exitY=0.5;exitDx=0;exitDy=0;entryX=1;entryY=0.5;entryDx=0;entryDy=0;" edge="1" parent="WIyWlLk6GJQsqaUBKTNV-1" source="etLwFJgJZtQVE6GD_fiM-187" target="etLwFJgJZtQVE6GD_fiM-186">
          <mxGeometry width="50" height="50" relative="1" as="geometry">
            <mxPoint x="450" y="690" as="sourcePoint" />
            <mxPoint x="500" y="640" as="targetPoint" />
          </mxGeometry>
        </mxCell>
        <mxCell id="etLwFJgJZtQVE6GD_fiM-190" value="1" style="text;html=1;align=center;verticalAlign=middle;resizable=0;points=[];autosize=1;strokeColor=none;fillColor=none;" vertex="1" parent="WIyWlLk6GJQsqaUBKTNV-1">
          <mxGeometry x="130" y="368" width="30" height="30" as="geometry" />
        </mxCell>
        <mxCell id="etLwFJgJZtQVE6GD_fiM-191" value="1" style="text;html=1;align=center;verticalAlign=middle;resizable=0;points=[];autosize=1;strokeColor=none;fillColor=none;" vertex="1" parent="WIyWlLk6GJQsqaUBKTNV-1">
          <mxGeometry x="330" y="550" width="30" height="30" as="geometry" />
        </mxCell>
        <mxCell id="etLwFJgJZtQVE6GD_fiM-192" value="Executa" style="rhombus;whiteSpace=wrap;html=1;" vertex="1" parent="WIyWlLk6GJQsqaUBKTNV-1">
          <mxGeometry x="360" y="-360" width="80" height="80" as="geometry" />
        </mxCell>
        <mxCell id="etLwFJgJZtQVE6GD_fiM-193" value="" style="endArrow=none;html=1;rounded=0;entryX=0;entryY=0.5;entryDx=0;entryDy=0;exitX=0.5;exitY=0;exitDx=0;exitDy=0;" edge="1" parent="WIyWlLk6GJQsqaUBKTNV-1" source="etLwFJgJZtQVE6GD_fiM-0" target="etLwFJgJZtQVE6GD_fiM-192">
          <mxGeometry width="50" height="50" relative="1" as="geometry">
            <mxPoint x="850" y="30" as="sourcePoint" />
            <mxPoint x="900" y="-20" as="targetPoint" />
            <Array as="points">
              <mxPoint x="160" y="-320" />
            </Array>
          </mxGeometry>
        </mxCell>
        <mxCell id="etLwFJgJZtQVE6GD_fiM-194" value="1" style="text;html=1;align=center;verticalAlign=middle;resizable=0;points=[];autosize=1;strokeColor=none;fillColor=none;" vertex="1" parent="WIyWlLk6GJQsqaUBKTNV-1">
          <mxGeometry x="130" y="278" width="30" height="30" as="geometry" />
        </mxCell>
        <mxCell id="etLwFJgJZtQVE6GD_fiM-195" value="" style="endArrow=none;html=1;rounded=0;entryX=0;entryY=0.5;entryDx=0;entryDy=0;exitX=1;exitY=0.5;exitDx=0;exitDy=0;" edge="1" parent="WIyWlLk6GJQsqaUBKTNV-1" source="etLwFJgJZtQVE6GD_fiM-192" target="etLwFJgJZtQVE6GD_fiM-99">
          <mxGeometry width="50" height="50" relative="1" as="geometry">
            <mxPoint x="850" y="30" as="sourcePoint" />
            <mxPoint x="900" y="-20" as="targetPoint" />
            <Array as="points">
              <mxPoint x="880" y="-320" />
              <mxPoint x="880" y="50" />
            </Array>
          </mxGeometry>
        </mxCell>
        <mxCell id="etLwFJgJZtQVE6GD_fiM-196" value="N" style="text;html=1;align=center;verticalAlign=middle;resizable=0;points=[];autosize=1;strokeColor=none;fillColor=none;" vertex="1" parent="WIyWlLk6GJQsqaUBKTNV-1">
          <mxGeometry x="1000" y="50" width="30" height="30" as="geometry" />
        </mxCell>
        <mxCell id="etLwFJgJZtQVE6GD_fiM-197" value="Estação Meteorológica" style="rounded=0;whiteSpace=wrap;html=1;" vertex="1" parent="WIyWlLk6GJQsqaUBKTNV-1">
          <mxGeometry x="100" y="720" width="120" height="60" as="geometry" />
        </mxCell>
        <mxCell id="etLwFJgJZtQVE6GD_fiM-198" value="Sensor" style="rounded=0;whiteSpace=wrap;html=1;" vertex="1" parent="WIyWlLk6GJQsqaUBKTNV-1">
          <mxGeometry x="720" y="720" width="120" height="60" as="geometry" />
        </mxCell>
        <mxCell id="etLwFJgJZtQVE6GD_fiM-200" value="" style="endArrow=none;html=1;rounded=0;entryX=0.5;entryY=1;entryDx=0;entryDy=0;exitX=0.5;exitY=0;exitDx=0;exitDy=0;" edge="1" parent="WIyWlLk6GJQsqaUBKTNV-1" source="etLwFJgJZtQVE6GD_fiM-197" target="etLwFJgJZtQVE6GD_fiM-186">
          <mxGeometry width="50" height="50" relative="1" as="geometry">
            <mxPoint x="890" y="740" as="sourcePoint" />
            <mxPoint x="940" y="690" as="targetPoint" />
          </mxGeometry>
        </mxCell>
        <mxCell id="etLwFJgJZtQVE6GD_fiM-201" value="1" style="text;html=1;align=center;verticalAlign=middle;resizable=0;points=[];autosize=1;strokeColor=none;fillColor=none;" vertex="1" parent="WIyWlLk6GJQsqaUBKTNV-1">
          <mxGeometry x="130" y="690" width="30" height="30" as="geometry" />
        </mxCell>
        <mxCell id="etLwFJgJZtQVE6GD_fiM-202" value="Tem" style="rhombus;whiteSpace=wrap;html=1;" vertex="1" parent="WIyWlLk6GJQsqaUBKTNV-1">
          <mxGeometry x="430" y="710" width="80" height="80" as="geometry" />
        </mxCell>
        <mxCell id="etLwFJgJZtQVE6GD_fiM-203" value="" style="endArrow=none;html=1;rounded=0;exitX=1;exitY=0.5;exitDx=0;exitDy=0;entryX=0;entryY=0.5;entryDx=0;entryDy=0;" edge="1" parent="WIyWlLk6GJQsqaUBKTNV-1" source="etLwFJgJZtQVE6GD_fiM-197" target="etLwFJgJZtQVE6GD_fiM-202">
          <mxGeometry width="50" height="50" relative="1" as="geometry">
            <mxPoint x="890" y="640" as="sourcePoint" />
            <mxPoint x="940" y="590" as="targetPoint" />
          </mxGeometry>
        </mxCell>
        <mxCell id="etLwFJgJZtQVE6GD_fiM-204" value="" style="endArrow=none;html=1;rounded=0;exitX=1;exitY=0.5;exitDx=0;exitDy=0;entryX=0;entryY=0.5;entryDx=0;entryDy=0;" edge="1" parent="WIyWlLk6GJQsqaUBKTNV-1" source="etLwFJgJZtQVE6GD_fiM-202" target="etLwFJgJZtQVE6GD_fiM-198">
          <mxGeometry width="50" height="50" relative="1" as="geometry">
            <mxPoint x="890" y="640" as="sourcePoint" />
            <mxPoint x="940" y="590" as="targetPoint" />
          </mxGeometry>
        </mxCell>
        <mxCell id="etLwFJgJZtQVE6GD_fiM-205" value="1" style="text;html=1;align=center;verticalAlign=middle;resizable=0;points=[];autosize=1;strokeColor=none;fillColor=none;" vertex="1" parent="WIyWlLk6GJQsqaUBKTNV-1">
          <mxGeometry x="220" y="750" width="30" height="30" as="geometry" />
        </mxCell>
        <mxCell id="etLwFJgJZtQVE6GD_fiM-206" value="N" style="text;html=1;align=center;verticalAlign=middle;resizable=0;points=[];autosize=1;strokeColor=none;fillColor=none;" vertex="1" parent="WIyWlLk6GJQsqaUBKTNV-1">
          <mxGeometry x="690" y="750" width="30" height="30" as="geometry" />
        </mxCell>
        <mxCell id="etLwFJgJZtQVE6GD_fiM-207" value="ID Sensor" style="ellipse;whiteSpace=wrap;html=1;" vertex="1" parent="WIyWlLk6GJQsqaUBKTNV-1">
          <mxGeometry x="890" y="680" width="80" height="30" as="geometry" />
        </mxCell>
        <mxCell id="etLwFJgJZtQVE6GD_fiM-208" value="Valor" style="ellipse;whiteSpace=wrap;html=1;" vertex="1" parent="WIyWlLk6GJQsqaUBKTNV-1">
          <mxGeometry x="890" y="720" width="80" height="30" as="geometry" />
        </mxCell>
        <mxCell id="etLwFJgJZtQVE6GD_fiM-209" value="Unidade" style="ellipse;whiteSpace=wrap;html=1;" vertex="1" parent="WIyWlLk6GJQsqaUBKTNV-1">
          <mxGeometry x="890" y="760" width="80" height="30" as="geometry" />
        </mxCell>
        <mxCell id="etLwFJgJZtQVE6GD_fiM-210" value="Tipo Sensor" style="ellipse;whiteSpace=wrap;html=1;" vertex="1" parent="WIyWlLk6GJQsqaUBKTNV-1">
          <mxGeometry x="890" y="800" width="80" height="30" as="geometry" />
        </mxCell>
        <mxCell id="etLwFJgJZtQVE6GD_fiM-211" value="" style="endArrow=none;html=1;rounded=0;exitX=1;exitY=0.5;exitDx=0;exitDy=0;entryX=0;entryY=0.5;entryDx=0;entryDy=0;" edge="1" parent="WIyWlLk6GJQsqaUBKTNV-1" source="etLwFJgJZtQVE6GD_fiM-198" target="etLwFJgJZtQVE6GD_fiM-207">
          <mxGeometry width="50" height="50" relative="1" as="geometry">
            <mxPoint x="890" y="540" as="sourcePoint" />
            <mxPoint x="940" y="490" as="targetPoint" />
          </mxGeometry>
        </mxCell>
        <mxCell id="etLwFJgJZtQVE6GD_fiM-212" value="" style="endArrow=none;html=1;rounded=0;exitX=1;exitY=0.5;exitDx=0;exitDy=0;entryX=0;entryY=0.5;entryDx=0;entryDy=0;" edge="1" parent="WIyWlLk6GJQsqaUBKTNV-1" source="etLwFJgJZtQVE6GD_fiM-198" target="etLwFJgJZtQVE6GD_fiM-208">
          <mxGeometry width="50" height="50" relative="1" as="geometry">
            <mxPoint x="890" y="540" as="sourcePoint" />
            <mxPoint x="940" y="490" as="targetPoint" />
          </mxGeometry>
        </mxCell>
        <mxCell id="etLwFJgJZtQVE6GD_fiM-213" value="" style="endArrow=none;html=1;rounded=0;exitX=1;exitY=0.5;exitDx=0;exitDy=0;entryX=0;entryY=0.5;entryDx=0;entryDy=0;" edge="1" parent="WIyWlLk6GJQsqaUBKTNV-1" source="etLwFJgJZtQVE6GD_fiM-198" target="etLwFJgJZtQVE6GD_fiM-209">
          <mxGeometry width="50" height="50" relative="1" as="geometry">
            <mxPoint x="890" y="540" as="sourcePoint" />
            <mxPoint x="940" y="490" as="targetPoint" />
          </mxGeometry>
        </mxCell>
        <mxCell id="etLwFJgJZtQVE6GD_fiM-214" value="" style="endArrow=none;html=1;rounded=0;exitX=1;exitY=0.5;exitDx=0;exitDy=0;entryX=0;entryY=0.5;entryDx=0;entryDy=0;" edge="1" parent="WIyWlLk6GJQsqaUBKTNV-1" source="etLwFJgJZtQVE6GD_fiM-198" target="etLwFJgJZtQVE6GD_fiM-210">
          <mxGeometry width="50" height="50" relative="1" as="geometry">
            <mxPoint x="890" y="540" as="sourcePoint" />
            <mxPoint x="940" y="490" as="targetPoint" />
          </mxGeometry>
        </mxCell>
        <mxCell id="etLwFJgJZtQVE6GD_fiM-217" value="ID Quinta" style="ellipse;whiteSpace=wrap;html=1;" vertex="1" parent="WIyWlLk6GJQsqaUBKTNV-1">
          <mxGeometry x="250" y="70" width="80" height="30" as="geometry" />
        </mxCell>
        <mxCell id="etLwFJgJZtQVE6GD_fiM-218" value="Designação" style="ellipse;whiteSpace=wrap;html=1;" vertex="1" parent="WIyWlLk6GJQsqaUBKTNV-1">
          <mxGeometry x="360" y="70" width="80" height="30" as="geometry" />
        </mxCell>
        <mxCell id="etLwFJgJZtQVE6GD_fiM-219" value="" style="endArrow=none;html=1;rounded=0;exitX=0.5;exitY=0;exitDx=0;exitDy=0;entryX=0.5;entryY=1;entryDx=0;entryDy=0;" edge="1" parent="WIyWlLk6GJQsqaUBKTNV-1" source="etLwFJgJZtQVE6GD_fiM-16" target="etLwFJgJZtQVE6GD_fiM-217">
          <mxGeometry width="50" height="50" relative="1" as="geometry">
            <mxPoint x="890" y="140" as="sourcePoint" />
            <mxPoint x="940" y="90" as="targetPoint" />
          </mxGeometry>
        </mxCell>
        <mxCell id="etLwFJgJZtQVE6GD_fiM-220" value="" style="endArrow=none;html=1;rounded=0;exitX=0.5;exitY=0;exitDx=0;exitDy=0;entryX=0.5;entryY=1;entryDx=0;entryDy=0;" edge="1" parent="WIyWlLk6GJQsqaUBKTNV-1" source="etLwFJgJZtQVE6GD_fiM-16" target="etLwFJgJZtQVE6GD_fiM-218">
          <mxGeometry width="50" height="50" relative="1" as="geometry">
            <mxPoint x="890" y="140" as="sourcePoint" />
            <mxPoint x="940" y="90" as="targetPoint" />
          </mxGeometry>
        </mxCell>
      </root>
    </mxGraphModel>
  </diagram>
</mxfile>
